<?xml version="1.0" encoding="utf-8"?>
<!-- Generator: Adobe Illustrator 28.0.0, SVG Export Plug-In . SVG Version: 6.00 Build 0)  -->
<svg version="1.1" id="Layer_1" xmlns="http://www.w3.org/2000/svg" xmlns:xlink="http://www.w3.org/1999/xlink" x="0px" y="0px"
	 viewBox="0 0 1000 1000" style="enable-background:new 0 0 1000 1000;" xml:space="preserve">
<style type="text/css">
	.st0{fill:#016596;}
	.st1{fill:#F6C11B;}
	.st2{fill:#1F5966;}
</style>
<g>
	<g>
		<path class="st0" d="M320.5,446.3c-8.3-11.5-19.2-21.1-31.9-28c-13.6-7.3-29.2-11.5-45.8-11.5c-52.4,0-95.1,41.8-95.1,93.1
			s42.6,93.1,95.1,93.1c16.6,0,32.2-4.2,45.8-11.5c-12.7-6.8-23.6-16.5-31.9-28c-4.4,1.1-9.1,1.6-13.8,1.6
			c-31.5,0-57.2-24.8-57.2-55.2c0-30.5,25.7-55.2,57.2-55.2c4.8,0,9.4,0.6,13.8,1.6c12.9,3.1,24.2,10.5,31.9,20.5
			c7.2,9.2,11.4,20.7,11.4,33.1s-4.2,23.8-11.4,33.1c7.8,10,19,17.4,31.9,20.5c10.9-15.2,17.4-33.6,17.4-53.6
			C337.8,480,331.4,461.5,320.5,446.3z"/>
	</g>
</g>
<g>
	<path class="st1" d="M334.3,406.8c-16.6,0-32.2,4.2-45.8,11.5c-12.7,6.9-23.6,16.5-31.9,28c0.2,0,0.3,0.1,0.4,0.1
		c0.9,0.2,1.8,0.5,2.7,0.8c0.4,0.1,0.9,0.3,1.3,0.4c0.4,0.1,0.9,0.3,1.3,0.5c0.4,0.1,0.9,0.3,1.3,0.5c0,0,0,0,0,0
		c0.9,0.3,1.7,0.7,2.6,1c0.9,0.4,1.8,0.8,2.6,1.2c0.4,0.2,0.7,0.4,1.1,0.6c0.4,0.2,0.8,0.4,1.2,0.7c0.7,0.4,1.4,0.8,2.2,1.2
		c0.2,0.1,0.3,0.2,0.5,0.3c0.3,0.2,0.6,0.4,0.9,0.6c0.5,0.3,0.9,0.6,1.4,0.9c0.3,0.2,0.6,0.4,0.8,0.6c0.4,0.3,0.7,0.5,1.1,0.8
		c0.4,0.3,0.7,0.5,1.1,0.8c0.3,0.3,0.7,0.5,1,0.8c0.4,0.3,0.8,0.6,1.1,0.9c0.3,0.3,0.7,0.6,1,0.9c0.3,0.3,0.7,0.6,1,0.9
		c0.3,0.3,0.6,0.6,1,1c0.3,0.3,0.6,0.6,0.9,0.9c1,1,1.9,2.1,2.8,3.2c0.2,0.3,0.5,0.6,0.7,0.9c7.8-10,19-17.4,31.9-20.5h0
		c4.4-1.1,9.1-1.6,13.8-1.6c10.6,0,20.6,2.8,29.1,7.7c3.5-11.7,11.4-22.4,21.2-30.6c0.2-0.2,0.4-0.3,0.6-0.5
		C370.6,412.2,353.1,406.8,334.3,406.8z"/>
	<path class="st1" d="M409.7,556.6c-2.3,2.9-4.8,5.7-7.4,8.4c-1,1.1-2.1,2.1-3.2,3.1c-0.6,0.5-1.1,1-1.7,1.5c-1.1,1-2.3,1.9-3.4,2.9
		c0,0,0,0,0,0c-1.2,0.9-2.3,1.8-3.6,2.7c-2.4,1.8-5,3.4-7.6,4.9c-14.2,8.3-30.8,13.1-48.5,13.1c-16.6,0-32.2-4.2-45.8-11.5
		c-12.7-6.8-23.6-16.5-31.9-28c-10.9-15.2-17.4-33.7-17.4-53.6c0-19.9,6.4-38.4,17.4-53.6c0.2,0,0.3,0.1,0.4,0.1
		c0.9,0.2,1.8,0.5,2.7,0.8c0.4,0.1,0.9,0.3,1.3,0.4c0.5,0.1,0.9,0.3,1.3,0.5c0.4,0.1,0.9,0.3,1.3,0.5c0,0,0,0,0,0
		c0.9,0.3,1.7,0.7,2.6,1c0.9,0.4,1.8,0.8,2.6,1.2c0.4,0.2,0.8,0.4,1.1,0.6c0.4,0.2,0.8,0.4,1.2,0.7c0.7,0.4,1.4,0.8,2.2,1.2
		c0.2,0.1,0.3,0.2,0.5,0.3c0.3,0.2,0.6,0.4,0.9,0.6c0.5,0.3,0.9,0.6,1.4,0.9c0.3,0.2,0.6,0.4,0.8,0.6c0.4,0.3,0.7,0.5,1.1,0.8
		c0.4,0.3,0.7,0.5,1.1,0.8c0.3,0.3,0.6,0.5,1,0.8c0.4,0.3,0.8,0.6,1.1,0.9c0.3,0.3,0.7,0.6,1,0.9c0.3,0.3,0.7,0.6,1,0.9s0.6,0.6,1,1
		c0.3,0.3,0.6,0.6,0.9,0.9c1,1,1.9,2.1,2.8,3.2c0.2,0.3,0.5,0.6,0.7,0.9c-7.2,9.2-11.4,20.7-11.4,33.1c0,12.4,4.2,23.8,11.4,33.1
		l0,0c7.8,10,19,17.4,31.9,20.5c4.4,1.1,9.1,1.6,13.8,1.6c15.2,0,29.1-5.8,39.4-15.2C387.9,549.4,400.7,554.1,409.7,556.6z"/>
	<path class="st1" d="M256.6,446.3c0.2,0,0.3,0.1,0.4,0.1C256.9,446.4,256.8,446.4,256.6,446.3L256.6,446.3z"/>
	<path class="st1" d="M257.1,446.4c0.9,0.2,1.8,0.5,2.7,0.8C258.9,446.9,258,446.7,257.1,446.4z"/>
	<path class="st1" d="M288.6,466.9L288.6,466.9c-0.2-0.3-0.5-0.6-0.7-0.9C288.1,466.3,288.3,466.6,288.6,466.9z"/>
</g>
<g>
	<g>
		<path class="st0" d="M259.8,447.2c-0.9-0.3-1.8-0.5-2.7-0.8C258,446.7,258.9,446.9,259.8,447.2z M320.5,446.3L320.5,446.3
			c-8.3-11.5-19.2-21.1-31.9-28c-13.6-7.3-29.2-11.5-45.8-11.5c-52.4,0-95.1,41.8-95.1,93.1c0,51.3,42.6,93.1,95.1,93.1
			c16.6,0,32.2-4.2,45.8-11.5c-12.7-6.8-23.6-16.5-31.9-28c-4.4,1.1-9.1,1.6-13.8,1.6c-31.5,0-57.2-24.8-57.2-55.2
			c0-30.5,25.7-55.2,57.2-55.2c4.8,0,9.4,0.6,13.8,1.6c0.2,0,0.3,0.1,0.4,0.1c0.9,0.2,1.8,0.5,2.7,0.8c0.4,0.1,0.9,0.3,1.3,0.4
			c0.5,0.1,0.9,0.3,1.3,0.5c0.4,0.1,0.9,0.3,1.3,0.5c0,0,0,0,0,0c0.9,0.3,1.7,0.7,2.6,1c0.9,0.4,1.8,0.8,2.6,1.2
			c0.4,0.2,0.8,0.4,1.1,0.6c0.4,0.2,0.8,0.4,1.2,0.7c0.7,0.4,1.4,0.8,2.2,1.2c0.2,0.1,0.3,0.2,0.5,0.3c0.3,0.2,0.6,0.4,0.9,0.6
			c0.5,0.3,0.9,0.6,1.4,0.9c0.3,0.2,0.6,0.4,0.8,0.6c0.4,0.3,0.7,0.5,1.1,0.8c0.4,0.3,0.7,0.5,1.1,0.8c0.3,0.3,0.6,0.5,1,0.8
			c0.4,0.3,0.8,0.6,1.1,0.9c0.3,0.3,0.7,0.6,1,0.9c0.3,0.3,0.7,0.6,1,0.9s0.6,0.6,1,1c0.3,0.3,0.6,0.6,0.9,0.9c1,1,1.9,2.1,2.8,3.2
			c0.2,0.3,0.5,0.6,0.7,0.9c7.2,9.2,11.4,20.7,11.4,33.1c0,12.4-4.2,23.8-11.4,33.1l0,0c7.8,10,19,17.4,31.9,20.5
			c10.9-15.2,17.4-33.7,17.4-53.6C337.8,480,331.4,461.5,320.5,446.3z"/>
	</g>
</g>
<path class="st0" d="M502.4,555.9c-9.8,19.3-28.7,29.6-39.5,33.4c-23.9,8.7-59.1,2.8-75.5-6.1c-1.4-0.6-2.9-1.7-4.5-3.2
	c2.6-1.5,5.1-3.2,7.6-4.9c1.2-0.9,2.4-1.8,3.6-2.7c0,0,0,0,0,0c1.2-0.9,2.3-1.9,3.4-2.9c0.6-0.5,1.1-1,1.7-1.5c1.1-1,2.2-2,3.2-3.1
	c2.6-2.6,5.1-5.4,7.4-8.4c0,0,0,0,0,0c3.6,0.4,7,1.3,10.6,2c18,3.7,53.4,0,46.3-26.5c-2.5-9.3-13.7-11.2-22.4-13.1
	c-5.5-1.1-10.9-2.2-16.2-3.2c-9-1.8-17.9-3.6-27-6c-3.3-0.9-6.7-1.9-9.9-2.9c-7.6-2.5-14.7-6-19.6-13c-10.5-13.6-12-28.1-8.1-41.3
	c3.5-11.7,11.4-22.4,21.3-30.6c0.2-0.2,0.4-0.3,0.6-0.5c27.8-21.7,64.4-18.6,101.3,0.7c3.3,1.7,5.7,3.4,7.3,5l-18.6,26.7
	c-7.3-4.2-8.8-4.9-13-7.1c-5.5-3-9.4-4.5-15.3-5.9c-10.9-2.5-25.9-2.3-36.3,3.8c-3.5,2-6.4,4.7-8.5,8.2
	c-7.4,16.3,10.2,23.8,23.2,27.1c0.6,0.1,1.2,0.3,1.8,0.4c19.1,4.2,39,2.7,56.2,12.7C504.1,505.1,514.1,534.2,502.4,555.9z"/>
<g>
	<path class="st2" d="M562.4,455.8c-14.6,0-26.3-11.6-26.3-26c0-13.8,12-25.4,26.3-25.4c14.4,0,26.2,11.6,26.2,25.8
		C588.6,444.2,576.8,455.8,562.4,455.8z M562.4,408.9c-11.5,0-21.3,9.6-21.3,21c0,11.8,9.6,21.3,21.3,21.3
		c11.6,0,21.2-9.6,21.2-21.1C583.6,418.5,574,408.9,562.4,408.9z"/>
	<path class="st2" d="M609.5,455.8c-8.9,0-15.1-5.9-15.5-14.8h5.3c0.7,6.7,4.8,10.2,10.4,10.2c5.7,0,9.8-4.2,9.8-9.9
		c0-5.4-2.6-7.8-11.1-10.4c-5.8-1.7-7.3-2.5-9.3-4.4c-2.2-2.1-3.5-5.4-3.5-8.8c0-7.7,5.8-13.4,13.8-13.4c8.1,0,13.9,5.4,13.9,13.5
		h-5.2c0-5.4-3.8-8.9-8.9-8.9c-5,0-8.6,3.7-8.6,8.7c0,2.3,0.9,4.6,2.4,5.8c1.3,1.1,2.8,1.7,7.3,3.1c5.1,1.5,7.2,2.5,9.2,4
		c3.2,2.4,5,6.3,5,10.6C624.5,449.6,618.1,455.8,609.5,455.8z"/>
	<path class="st2" d="M656.2,455.8c-14.6,0-26.3-11.6-26.3-26c0-13.8,12-25.4,26.3-25.4c14.4,0,26.2,11.6,26.2,25.8
		C682.4,444.2,670.6,455.8,656.2,455.8z M656.2,408.9c-11.5,0-21.3,9.6-21.3,21c0,11.8,9.6,21.3,21.3,21.3
		c11.6,0,21.2-9.6,21.2-21.1C677.4,418.5,667.8,408.9,656.2,408.9z"/>
	<path class="st2" d="M708.3,455.8c-10,0-16.9-6.1-16.9-19.6v-31h5v31c0,10.2,4.2,15,12,15c7.7,0,11.9-4.8,11.9-15v-31h5v31
		C725.3,449.8,718.4,455.8,708.3,455.8z"/>
	<path class="st2" d="M736.5,454.9v-49.7h5v45.2H762v4.5H736.5z"/>
	<path class="st2" d="M768.5,454.9v-49.7h5v49.7H768.5z"/>
	<path class="st2" d="M562.2,520.3c-14.9,0-26.1-11-26.1-25.6c0-14.9,11-25.9,25.8-25.9c10.3,0,19,5.2,22.9,13.8h-5.6
		c-4.2-6.7-10.1-9.2-17.1-9.2c-11.8,0-20.9,9.1-20.9,21.1c0,11.6,9.5,21.2,21,21.2c7.3,0,12-2.8,17.3-9.3h5.5
		C579.9,515.6,572.3,520.3,562.2,520.3z"/>
	<path class="st2" d="M610.7,520.3c-10,0-16.9-6.1-16.9-19.6v-31h5v31c0,10.2,4.2,15,12,15c7.7,0,11.9-4.8,11.9-15v-31h5v31
		C627.7,514.2,620.8,520.3,610.7,520.3z"/>
	<path class="st2" d="M650.8,520.3c-8.9,0-15.1-5.9-15.5-14.8h5.3c0.7,6.7,4.8,10.2,10.4,10.2c5.7,0,9.8-4.2,9.8-9.9
		c0-5.4-2.6-7.8-11.1-10.4c-5.8-1.7-7.3-2.5-9.3-4.4c-2.2-2.1-3.5-5.4-3.5-8.8c0-7.7,5.8-13.4,13.8-13.4c8.1,0,13.9,5.4,13.9,13.5
		h-5.2c0-5.4-3.8-8.9-8.9-8.9c-5,0-8.6,3.7-8.6,8.7c0,2.3,0.9,4.6,2.4,5.8c1.3,1.1,2.8,1.7,7.3,3.1c5.1,1.5,7.2,2.5,9.2,4
		c3.2,2.4,5,6.3,5,10.6C665.8,514,659.4,520.3,650.8,520.3z"/>
	<path class="st2" d="M685,474.2v45.2h-5v-45.2h-11.4v-4.5h27.7v4.5H685z"/>
	<path class="st2" d="M727,520.3c-14.6,0-26.3-11.6-26.3-26c0-13.8,12-25.4,26.3-25.4c14.4,0,26.2,11.6,26.2,25.8
		C753.3,508.7,741.4,520.3,727,520.3z M727,473.4c-11.5,0-21.3,9.6-21.3,21c0,11.8,9.6,21.3,21.3,21.3c11.6,0,21.2-9.6,21.2-21.1
		C748.2,483,738.6,473.4,727,473.4z"/>
	<path class="st2" d="M808.9,519.4v-44.3l-18.7,44.3h-4.3l-18.6-44.3v44.3h-5v-49.7h7.7l18.1,42.3l18-42.3h7.7v49.7H808.9z"/>
	<path class="st2" d="M836.9,520.3c-8.9,0-15.1-5.9-15.5-14.8h5.3c0.7,6.7,4.8,10.2,10.4,10.2c5.7,0,9.8-4.2,9.8-9.9
		c0-5.4-2.6-7.8-11.1-10.4c-5.8-1.7-7.3-2.5-9.3-4.4c-2.2-2.1-3.5-5.4-3.5-8.8c0-7.7,5.8-13.4,13.8-13.4c8.1,0,13.9,5.4,13.9,13.5
		h-5.2c0-5.4-3.8-8.9-8.9-8.9c-5,0-8.6,3.7-8.6,8.7c0,2.3,0.9,4.6,2.4,5.8c1.3,1.1,2.8,1.7,7.3,3.1c5.1,1.5,7.2,2.5,9.2,4
		c3.2,2.4,5,6.3,5,10.6C851.9,514,845.6,520.3,836.9,520.3z"/>
	<path class="st2" d="M550.1,584.8c-8.9,0-15.1-5.9-15.5-14.8h5.3c0.7,6.7,4.8,10.2,10.4,10.2c5.7,0,9.8-4.2,9.8-9.9
		c0-5.4-2.6-7.8-11.1-10.4c-5.8-1.7-7.3-2.5-9.3-4.4c-2.2-2.1-3.5-5.4-3.5-8.8c0-7.7,5.8-13.4,13.8-13.4c8.1,0,13.9,5.4,13.9,13.5
		h-5.2c0-5.4-3.8-8.9-8.9-8.9c-5,0-8.6,3.7-8.6,8.7c0,2.3,0.9,4.6,2.4,5.8c1.3,1.1,2.8,1.7,7.3,3.1c5.1,1.5,7.2,2.5,9.2,4
		c3.2,2.4,5,6.3,5,10.6C565.1,578.5,558.7,584.8,550.1,584.8z"/>
	<path class="st2" d="M572.7,583.9v-49.7h27.2v4.5h-22.2v17.8h21.5v4.5h-21.5v18.4h22.2v4.5H572.7z"/>
	<path class="st2" d="M628.7,565.3l13.9,18.6h-6.2l-16.7-22.5c13.9,0,18.6-2.4,18.6-11.4c0-8.3-5.1-11.3-16.7-11.3h-7v45.2h-5v-49.7
		H622c15.6,0,21.4,5.7,21.4,16C643.4,559,638.3,564.3,628.7,565.3z"/>
	<path class="st2" d="M672.3,583.9h-4.8L647,534.2h5.4l17.5,43.5l17.6-43.5h5.4L672.3,583.9z"/>
	<path class="st2" d="M699.6,583.9v-49.7h5v49.7H699.6z"/>
	<path class="st2" d="M739.7,584.8c-14.9,0-26.1-11-26.1-25.6c0-14.9,11-25.9,25.8-25.9c10.3,0,19,5.2,22.9,13.8h-5.6
		c-4.2-6.7-10.1-9.2-17.1-9.2c-11.8,0-20.9,9.1-20.9,21.1c0,11.6,9.5,21.2,21,21.2c7.3,0,12-2.8,17.3-9.3h5.5
		C757.4,580.1,749.8,584.8,739.7,584.8z"/>
	<path class="st2" d="M771.4,583.9v-49.7h27.2v4.5h-22.2v17.8h21.5v4.5h-21.5v18.4h22.2v4.5H771.4z"/>
	<path class="st2" d="M820.3,584.8c-8.9,0-15.1-5.9-15.5-14.8h5.3c0.7,6.7,4.8,10.2,10.4,10.2c5.7,0,9.8-4.2,9.8-9.9
		c0-5.4-2.6-7.8-11.1-10.4c-5.8-1.7-7.3-2.5-9.3-4.4c-2.2-2.1-3.5-5.4-3.5-8.8c0-7.7,5.8-13.4,13.8-13.4c8.1,0,13.9,5.4,13.9,13.5
		h-5.2c0-5.4-3.8-8.9-8.9-8.9c-5,0-8.6,3.7-8.6,8.7c0,2.3,0.9,4.6,2.4,5.8c1.3,1.1,2.8,1.7,7.3,3.1c5.1,1.5,7.2,2.5,9.2,4
		c3.2,2.4,5,6.3,5,10.6C835.3,578.5,828.9,584.8,820.3,584.8z"/>
</g>
</svg>
